<svg width="110" height="107" viewBox="0 0 110 107" fill="none" xmlns="http://www.w3.org/2000/svg">
<g clip-path="url(#clip0_30_154)" filter="url(#filter0_d_30_154)">
<mask id="mask0_30_154" style="mask-type:luminance" maskUnits="userSpaceOnUse" x="4" y="-1" width="102" height="98">
<path d="M4.83551 -0.484329H105.511V96.464H4.83551V-0.484329Z" fill="white"/>
</mask>
<g mask="url(#mask0_30_154)">
<path d="M72.7646 96.361H37.5817V78.719L22.4372 87.54L4.83551 56.8108L19.9903 47.9898L4.83551 39.1689L22.4372 8.43969L37.5817 17.2607V-0.381287H72.7646V17.2607L87.9194 8.43969L105.511 39.1689L90.3561 47.9898L105.511 56.8108L87.9194 87.54L72.7646 78.719V96.361ZM40.9129 93.0016H69.4437V72.907L86.7062 82.9543L100.966 58.0371L83.704 47.9898L100.966 37.9426L86.7062 13.0254L69.4437 23.0726V2.97811H40.9129V23.0726L23.6504 13.0254L9.39016 37.9426L26.6526 47.9898L9.39016 58.0371L23.6504 82.9543L40.9129 72.907V93.0016Z" fill="#191645"/>
</g>
<path d="M66.8426 90.3841H43.5141V68.3626L24.6066 79.3785L12.9373 58.9954L31.8447 47.9898L12.9373 36.9842L24.6066 16.6115L43.5141 27.6171V5.59555H66.8426V27.6171L85.75 16.6115L97.4194 36.9842L78.5016 47.9898L97.4194 58.9954L85.75 79.3785L66.8426 68.3626V90.3841ZM46.835 87.0247H63.5114V62.5506L84.5368 74.7928L92.875 60.232L71.8496 47.9898L92.875 35.7476L84.5368 21.1868L63.5114 33.429V8.95494H46.835V33.429L25.8198 21.1868L17.4816 35.7476L38.5071 47.9898L17.4816 60.232L25.8198 74.7928L46.835 62.5506V87.0247Z" fill="#191645"/>
<path d="M52.243 60.0878C50.5877 60.0878 49.0352 59.4386 47.8631 58.2638C46.691 57.0788 46.0536 55.5124 46.0536 53.843C46.0536 52.1839 46.691 50.6176 47.8631 49.4428C49.0352 48.2578 50.5877 47.6086 52.243 47.6086H57.2089C58.2165 47.6086 59.1624 47.217 59.8718 46.4956C60.5812 45.7846 60.9719 44.8263 60.9719 43.8164C60.9719 42.8065 60.5812 41.8481 59.8718 41.1371C59.1624 40.4158 58.2165 40.0242 57.2089 40.0242V36.6648C59.1109 36.6648 60.8896 37.4067 62.2262 38.767C63.5628 40.1066 64.303 41.8997 64.303 43.8164C64.303 45.7228 63.5628 47.5261 62.2262 48.8761C60.8896 50.226 59.1109 50.968 57.2089 50.968H52.243C51.4719 50.968 50.7522 51.2668 50.2073 51.813C49.6726 52.3591 49.3848 53.0805 49.3848 53.843C49.3848 54.6159 49.6726 55.3475 50.2176 55.8937C50.7522 56.4296 51.4719 56.7284 52.243 56.7284V60.0878Z" fill="#191645"/>
<path d="M53.1478 72.8555C51.9757 72.8555 50.8756 72.4021 50.0428 71.5674C49.2203 70.7327 48.7679 69.6198 48.7679 68.445C48.7679 67.26 49.2203 66.1574 50.0428 65.3227C50.8756 64.488 51.9757 64.0242 53.1478 64.0242H56.3041C56.8285 64.0242 57.322 63.8181 57.6921 63.4472C58.0623 63.0762 58.2576 62.5816 58.2576 62.056H61.5888C61.5888 63.4884 61.0336 64.8177 60.0363 65.8276C59.039 66.8272 57.7127 67.3836 56.3041 67.3836H53.1478C52.8599 67.3836 52.5926 67.497 52.3972 67.6928C52.2019 67.8886 52.0991 68.1565 52.0991 68.445C52.0991 68.7336 52.2019 69.0015 52.3972 69.1973C52.5926 69.3931 52.8599 69.4961 53.1478 69.4961V72.8555Z" fill="#191645"/>
<path d="M53.5076 32.0688H56.8387V75.6275H53.5076V32.0688Z" fill="#191645"/>
<path d="M55.1731 33.7485C51.8728 33.7485 49.1791 31.0383 49.1791 27.6995C49.1791 24.3711 51.8728 21.6609 55.1731 21.6609C58.4837 21.6609 61.1672 24.3711 61.1672 27.6995C61.1672 31.0383 58.4837 33.7485 55.1731 33.7485ZM55.1731 25.01C53.7029 25.01 52.5102 26.2156 52.5102 27.6995C52.5102 29.1834 53.7029 30.3891 55.1731 30.3891C56.6434 30.3891 57.8463 29.1834 57.8463 27.6995C57.8463 26.2156 56.6434 25.01 55.1731 25.01Z" fill="#191645"/>
<path d="M47.7192 36.6648H57.2089V40.0242H47.7192V36.6648Z" fill="#191645"/>
<path d="M61.5888 62.056H58.2576C58.2576 61.5305 58.0622 61.0358 57.6921 60.6648C57.322 60.2939 56.8285 60.0878 56.3041 60.0878H52.243V56.7284H56.3041C57.7127 56.7284 59.039 57.2848 60.0466 58.2947C61.0438 59.2943 61.5888 60.6339 61.5888 62.056Z" fill="#191645"/>
<path d="M53.1477 69.4961H56.9827V72.8555H53.1477V69.4961Z" fill="#191645"/>
<path d="M53.1477 69.4961H56.9827V72.8555H53.1477V69.4961Z" fill="#191645"/>
</g>
<defs>
<filter id="filter0_d_30_154" x="0" y="0" width="110" height="106.324" filterUnits="userSpaceOnUse" color-interpolation-filters="sRGB">
<feFlood flood-opacity="0" result="BackgroundImageFix"/>
<feColorMatrix in="SourceAlpha" type="matrix" values="0 0 0 0 0 0 0 0 0 0 0 0 0 0 0 0 0 0 127 0" result="hardAlpha"/>
<feOffset dy="5"/>
<feGaussianBlur stdDeviation="2.5"/>
<feComposite in2="hardAlpha" operator="out"/>
<feColorMatrix type="matrix" values="0 0 0 0 0 0 0 0 0 0 0 0 0 0 0 0 0 0 0.25 0"/>
<feBlend mode="normal" in2="BackgroundImageFix" result="effect1_dropShadow_30_154"/>
<feBlend mode="normal" in="SourceGraphic" in2="effect1_dropShadow_30_154" result="shape"/>
</filter>
<clipPath id="clip0_30_154">
<rect width="100" height="96.3235" fill="white" transform="translate(5)"/>
</clipPath>
</defs>
</svg>
