
<svg xmlns="http://www.w3.org/2000/svg" xmlns:xlink="http://www.w3.org/1999/xlink" width="200" zoomAndPan="magnify" viewBox="0 0 150 74.999997" height="100" preserveAspectRatio="xMidYMid meet" version="1.0"><defs><g/><clipPath id="3094bb638c"><path d="M 9.3125 18.566406 L 47.5625 18.566406 L 47.5625 55.316406 L 9.3125 55.316406 Z M 9.3125 18.566406 " clip-rule="nonzero"/></clipPath></defs><rect x="-15" width="180" fill="#ffffff" y="-7.5" height="89.999996" fill-opacity="1"/><rect x="-15" width="180" fill="#ffffff" y="-7.5" height="89.999996" fill-opacity="1"/><rect x="-15" width="180" fill="#ffffff" y="-7.5" height="89.999996" fill-opacity="1"/><g clip-path="url(#3094bb638c)"><path fill="#ff3131" d="M 35.121094 55.277344 L 21.753906 55.277344 L 21.753906 48.589844 L 16 51.933594 L 9.3125 40.285156 L 15.070312 36.941406 L 9.3125 33.597656 L 16 21.949219 L 21.753906 25.292969 L 21.753906 18.605469 L 35.121094 18.605469 L 35.121094 25.292969 L 40.878906 21.949219 L 47.5625 33.597656 L 41.804688 36.941406 L 47.5625 40.285156 L 40.878906 51.933594 L 35.121094 48.589844 Z M 23.019531 54.003906 L 33.859375 54.003906 L 33.859375 46.386719 L 40.417969 50.195312 L 45.835938 40.75 L 39.277344 36.941406 L 45.835938 33.132812 L 40.417969 23.6875 L 33.859375 27.496094 L 33.859375 19.878906 L 23.019531 19.878906 L 23.019531 27.496094 L 16.460938 23.6875 L 11.042969 33.132812 L 17.601562 36.941406 L 11.042969 40.75 L 16.460938 50.195312 L 23.019531 46.386719 Z M 23.019531 54.003906 " fill-opacity="1" fill-rule="nonzero"/></g><path fill="#ff3131" d="M 32.871094 53.011719 L 24.007812 53.011719 L 24.007812 44.664062 L 16.824219 48.839844 L 12.390625 41.113281 L 19.574219 36.941406 L 12.390625 32.769531 L 16.824219 25.046875 L 24.007812 29.21875 L 24.007812 20.871094 L 32.871094 20.871094 L 32.871094 29.21875 L 40.054688 25.046875 L 44.488281 32.769531 L 37.300781 36.941406 L 44.488281 41.113281 L 40.054688 48.839844 L 32.871094 44.664062 Z M 25.269531 51.738281 L 31.605469 51.738281 L 31.605469 42.460938 L 39.59375 47.101562 L 42.761719 41.582031 L 34.773438 36.941406 L 42.761719 32.300781 L 39.59375 26.78125 L 31.605469 31.421875 L 31.605469 22.144531 L 25.269531 22.144531 L 25.269531 31.421875 L 17.285156 26.78125 L 14.117188 32.300781 L 22.105469 36.941406 L 14.117188 41.582031 L 17.285156 47.101562 L 25.269531 42.460938 Z M 25.269531 51.738281 " fill-opacity="1" fill-rule="nonzero"/><path fill="#ff3131" d="M 27.324219 41.527344 C 26.695312 41.527344 26.105469 41.28125 25.660156 40.835938 C 25.214844 40.386719 24.972656 39.792969 24.972656 39.160156 C 24.972656 38.53125 25.214844 37.9375 25.660156 37.492188 C 26.105469 37.042969 26.695312 36.796875 27.324219 36.796875 L 29.210938 36.796875 C 29.59375 36.796875 29.953125 36.648438 30.222656 36.375 C 30.492188 36.105469 30.640625 35.742188 30.640625 35.359375 C 30.640625 34.976562 30.492188 34.613281 30.222656 34.34375 C 29.953125 34.070312 29.59375 33.921875 29.210938 33.921875 L 29.210938 32.648438 C 29.933594 32.648438 30.609375 32.929688 31.117188 33.445312 C 31.625 33.953125 31.90625 34.632812 31.90625 35.359375 C 31.90625 36.082031 31.625 36.765625 31.117188 37.277344 C 30.609375 37.789062 29.933594 38.070312 29.210938 38.070312 L 27.324219 38.070312 C 27.03125 38.070312 26.757812 38.183594 26.550781 38.390625 C 26.347656 38.597656 26.238281 38.871094 26.238281 39.160156 C 26.238281 39.453125 26.347656 39.730469 26.554688 39.9375 C 26.757812 40.140625 27.03125 40.253906 27.324219 40.253906 Z M 27.324219 41.527344 " fill-opacity="1" fill-rule="nonzero"/><path fill="#ff3131" d="M 27.667969 46.367188 C 27.222656 46.367188 26.804688 46.195312 26.488281 45.878906 C 26.175781 45.5625 26.003906 45.140625 26.003906 44.695312 C 26.003906 44.246094 26.175781 43.828125 26.488281 43.511719 C 26.804688 43.195312 27.222656 43.019531 27.667969 43.019531 L 28.867188 43.019531 C 29.066406 43.019531 29.253906 42.941406 29.394531 42.800781 C 29.535156 42.660156 29.609375 42.472656 29.609375 42.273438 L 30.875 42.273438 C 30.875 42.816406 30.664062 43.320312 30.285156 43.703125 C 29.90625 44.082031 29.402344 44.292969 28.867188 44.292969 L 27.667969 44.292969 C 27.558594 44.292969 27.457031 44.335938 27.382812 44.410156 C 27.308594 44.484375 27.269531 44.585938 27.269531 44.695312 C 27.269531 44.804688 27.308594 44.90625 27.382812 44.980469 C 27.457031 45.054688 27.558594 45.09375 27.667969 45.09375 Z M 27.667969 46.367188 " fill-opacity="1" fill-rule="nonzero"/><path fill="#ff3131" d="M 27.804688 30.90625 L 29.070312 30.90625 L 29.070312 47.417969 L 27.804688 47.417969 Z M 27.804688 30.90625 " fill-opacity="1" fill-rule="nonzero"/><path fill="#ff3131" d="M 28.4375 31.542969 C 27.183594 31.542969 26.160156 30.515625 26.160156 29.25 C 26.160156 27.988281 27.183594 26.960938 28.4375 26.960938 C 29.695312 26.960938 30.714844 27.988281 30.714844 29.25 C 30.714844 30.515625 29.695312 31.542969 28.4375 31.542969 Z M 28.4375 28.230469 C 27.878906 28.230469 27.425781 28.6875 27.425781 29.25 C 27.425781 29.8125 27.878906 30.269531 28.4375 30.269531 C 28.996094 30.269531 29.453125 29.8125 29.453125 29.25 C 29.453125 28.6875 28.996094 28.230469 28.4375 28.230469 Z M 28.4375 28.230469 " fill-opacity="1" fill-rule="nonzero"/><path fill="#ff3131" d="M 25.605469 32.648438 L 29.210938 32.648438 L 29.210938 33.921875 L 25.605469 33.921875 Z M 25.605469 32.648438 " fill-opacity="1" fill-rule="nonzero"/><path fill="#ff3131" d="M 30.875 42.273438 L 29.609375 42.273438 C 29.609375 42.074219 29.535156 41.886719 29.394531 41.746094 C 29.253906 41.605469 29.066406 41.527344 28.867188 41.527344 L 27.324219 41.527344 L 27.324219 40.253906 L 28.867188 40.253906 C 29.402344 40.253906 29.90625 40.464844 30.289062 40.847656 C 30.667969 41.226562 30.875 41.734375 30.875 42.273438 Z M 30.875 42.273438 " fill-opacity="1" fill-rule="nonzero"/><path fill="#ff3131" d="M 27.667969 45.09375 L 29.125 45.09375 L 29.125 46.367188 L 27.667969 46.367188 Z M 27.667969 45.09375 " fill-opacity="1" fill-rule="nonzero"/><path fill="#ff3131" d="M 27.667969 45.09375 L 29.125 45.09375 L 29.125 46.367188 L 27.667969 46.367188 Z M 27.667969 45.09375 " fill-opacity="1" fill-rule="nonzero"/><g fill="#000000" fill-opacity="1"><g transform="translate(52.513669, 33.918258)"><g><path d="M 11 -10.453125 L 4.625 -10.453125 L 4.625 -7.4375 L 10.5 -7.4375 L 10.5 -4.8125 L 4.625 -4.8125 L 4.625 0 L 1.3125 0 L 1.3125 -13.078125 L 11 -13.078125 Z M 11 -10.453125 "/></g></g></g><g fill="#000000" fill-opacity="1"><g transform="translate(63.786802, 33.918258)"><g><path d="M 5.8125 -10.21875 C 7.1875 -10.21875 8.253906 -9.894531 9.015625 -9.25 C 9.785156 -8.613281 10.175781 -7.722656 10.1875 -6.578125 L 10.1875 0 L 7.046875 0 L 7.046875 -1.15625 C 6.378906 -0.28125 5.347656 0.15625 3.953125 0.15625 C 2.898438 0.15625 2.0625 -0.132812 1.4375 -0.71875 C 0.8125 -1.3125 0.5 -2.070312 0.5 -3 C 0.5 -3.957031 0.832031 -4.703125 1.5 -5.234375 C 2.164062 -5.765625 3.125 -6.035156 4.375 -6.046875 L 7.015625 -6.046875 L 7.015625 -6.203125 C 7.015625 -6.703125 6.847656 -7.085938 6.515625 -7.359375 C 6.191406 -7.640625 5.707031 -7.78125 5.0625 -7.78125 C 4.15625 -7.78125 3.148438 -7.503906 2.046875 -6.953125 L 1.140625 -9.078125 C 2.765625 -9.835938 4.320312 -10.21875 5.8125 -10.21875 Z M 4.953125 -2.03125 C 5.460938 -2.03125 5.910156 -2.15625 6.296875 -2.40625 C 6.679688 -2.664062 6.921875 -3.003906 7.015625 -3.421875 L 7.015625 -4.3125 L 4.984375 -4.3125 C 4.015625 -4.3125 3.53125 -3.953125 3.53125 -3.234375 C 3.53125 -2.859375 3.65625 -2.5625 3.90625 -2.34375 C 4.15625 -2.132812 4.503906 -2.03125 4.953125 -2.03125 Z M 4.953125 -2.03125 "/></g></g></g><g fill="#000000" fill-opacity="1"><g transform="translate(74.985273, 33.918258)"><g><path d="M 4.515625 -10.0625 L 4.515625 -8.359375 C 5.222656 -9.566406 6.3125 -10.1875 7.78125 -10.21875 L 7.78125 -7.296875 C 6.863281 -7.390625 6.113281 -7.238281 5.53125 -6.84375 C 4.945312 -6.445312 4.609375 -5.890625 4.515625 -5.171875 L 4.515625 0 L 1.28125 0 L 1.28125 -10.0625 Z M 4.515625 -10.0625 "/></g></g></g><g fill="#000000" fill-opacity="1"><g transform="translate(82.954854, 33.918258)"><g><path d="M 14.734375 -10.21875 C 15.835938 -10.21875 16.71875 -9.863281 17.375 -9.15625 C 18.03125 -8.457031 18.359375 -7.519531 18.359375 -6.34375 L 18.359375 0 L 15.140625 0 L 15.140625 -5.453125 C 15.140625 -6.046875 14.984375 -6.515625 14.671875 -6.859375 C 14.359375 -7.203125 13.9375 -7.375 13.40625 -7.375 C 12.8125 -7.363281 12.335938 -7.132812 11.984375 -6.6875 C 11.628906 -6.25 11.453125 -5.679688 11.453125 -4.984375 L 11.453125 0 L 8.21875 0 L 8.21875 -5.453125 C 8.21875 -6.046875 8.0625 -6.515625 7.75 -6.859375 C 7.445312 -7.203125 7.03125 -7.375 6.5 -7.375 C 5.882812 -7.363281 5.394531 -7.132812 5.03125 -6.6875 C 4.675781 -6.238281 4.5 -5.671875 4.5 -4.984375 L 4.5 0 L 1.28125 0 L 1.28125 -10.0625 L 4.5 -10.0625 L 4.5 -8.40625 C 5.1875 -9.582031 6.296875 -10.1875 7.828125 -10.21875 C 8.628906 -10.21875 9.328125 -10.015625 9.921875 -9.609375 C 10.515625 -9.203125 10.9375 -8.644531 11.1875 -7.9375 C 11.84375 -9.425781 13.023438 -10.1875 14.734375 -10.21875 Z M 14.734375 -10.21875 "/></g></g></g><g fill="#000000" fill-opacity="1"><g transform="translate(102.309545, 33.918258)"><g><path d="M 5.8125 -10.21875 C 7.1875 -10.21875 8.253906 -9.894531 9.015625 -9.25 C 9.785156 -8.613281 10.175781 -7.722656 10.1875 -6.578125 L 10.1875 0 L 7.046875 0 L 7.046875 -1.15625 C 6.378906 -0.28125 5.347656 0.15625 3.953125 0.15625 C 2.898438 0.15625 2.0625 -0.132812 1.4375 -0.71875 C 0.8125 -1.3125 0.5 -2.070312 0.5 -3 C 0.5 -3.957031 0.832031 -4.703125 1.5 -5.234375 C 2.164062 -5.765625 3.125 -6.035156 4.375 -6.046875 L 7.015625 -6.046875 L 7.015625 -6.203125 C 7.015625 -6.703125 6.847656 -7.085938 6.515625 -7.359375 C 6.191406 -7.640625 5.707031 -7.78125 5.0625 -7.78125 C 4.15625 -7.78125 3.148438 -7.503906 2.046875 -6.953125 L 1.140625 -9.078125 C 2.765625 -9.835938 4.320312 -10.21875 5.8125 -10.21875 Z M 4.953125 -2.03125 C 5.460938 -2.03125 5.910156 -2.15625 6.296875 -2.40625 C 6.679688 -2.664062 6.921875 -3.003906 7.015625 -3.421875 L 7.015625 -4.3125 L 4.984375 -4.3125 C 4.015625 -4.3125 3.53125 -3.953125 3.53125 -3.234375 C 3.53125 -2.859375 3.65625 -2.5625 3.90625 -2.34375 C 4.15625 -2.132812 4.503906 -2.03125 4.953125 -2.03125 Z M 4.953125 -2.03125 "/></g></g></g><g fill="#000000" fill-opacity="1"><g transform="translate(113.508016, 33.918258)"><g><path d="M 5.671875 -10.171875 C 6.671875 -10.171875 7.554688 -9.972656 8.328125 -9.578125 C 9.109375 -9.191406 9.71875 -8.640625 10.15625 -7.921875 L 7.84375 -6.515625 C 7.34375 -7.210938 6.664062 -7.5625 5.8125 -7.5625 C 5.1875 -7.5625 4.675781 -7.328125 4.28125 -6.859375 C 3.894531 -6.390625 3.703125 -5.773438 3.703125 -5.015625 C 3.703125 -4.242188 3.894531 -3.625 4.28125 -3.15625 C 4.664062 -2.695312 5.175781 -2.46875 5.8125 -2.46875 C 6.75 -2.46875 7.429688 -2.847656 7.859375 -3.609375 L 10.21875 -2.21875 C 9.800781 -1.476562 9.195312 -0.90625 8.40625 -0.5 C 7.613281 -0.09375 6.691406 0.109375 5.640625 0.109375 C 4.085938 0.109375 2.832031 -0.359375 1.875 -1.296875 C 0.925781 -2.234375 0.453125 -3.46875 0.453125 -5 C 0.453125 -6.539062 0.929688 -7.785156 1.890625 -8.734375 C 2.859375 -9.691406 4.117188 -10.171875 5.671875 -10.171875 Z M 5.671875 -10.171875 "/></g></g></g><g fill="#000000" fill-opacity="1"><g transform="translate(123.997251, 33.918258)"><g><path d="M 1.6875 -14.171875 C 2.007812 -14.492188 2.414062 -14.65625 2.90625 -14.65625 C 3.40625 -14.65625 3.8125 -14.492188 4.125 -14.171875 C 4.445312 -13.859375 4.609375 -13.453125 4.609375 -12.953125 C 4.609375 -12.460938 4.445312 -12.050781 4.125 -11.71875 C 3.8125 -11.394531 3.40625 -11.234375 2.90625 -11.234375 C 2.414062 -11.234375 2.007812 -11.394531 1.6875 -11.71875 C 1.375 -12.050781 1.21875 -12.460938 1.21875 -12.953125 C 1.21875 -13.453125 1.375 -13.859375 1.6875 -14.171875 Z M 4.5 0 L 1.28125 0 L 1.28125 -10.0625 L 4.5 -10.0625 Z M 4.5 0 "/></g></g></g><g fill="#000000" fill-opacity="1"><g transform="translate(129.801793, 33.918258)"><g><path d="M 5.8125 -10.21875 C 7.1875 -10.21875 8.253906 -9.894531 9.015625 -9.25 C 9.785156 -8.613281 10.175781 -7.722656 10.1875 -6.578125 L 10.1875 0 L 7.046875 0 L 7.046875 -1.15625 C 6.378906 -0.28125 5.347656 0.15625 3.953125 0.15625 C 2.898438 0.15625 2.0625 -0.132812 1.4375 -0.71875 C 0.8125 -1.3125 0.5 -2.070312 0.5 -3 C 0.5 -3.957031 0.832031 -4.703125 1.5 -5.234375 C 2.164062 -5.765625 3.125 -6.035156 4.375 -6.046875 L 7.015625 -6.046875 L 7.015625 -6.203125 C 7.015625 -6.703125 6.847656 -7.085938 6.515625 -7.359375 C 6.191406 -7.640625 5.707031 -7.78125 5.0625 -7.78125 C 4.15625 -7.78125 3.148438 -7.503906 2.046875 -6.953125 L 1.140625 -9.078125 C 2.765625 -9.835938 4.320312 -10.21875 5.8125 -10.21875 Z M 4.953125 -2.03125 C 5.460938 -2.03125 5.910156 -2.15625 6.296875 -2.40625 C 6.679688 -2.664062 6.921875 -3.003906 7.015625 -3.421875 L 7.015625 -4.3125 L 4.984375 -4.3125 C 4.015625 -4.3125 3.53125 -3.953125 3.53125 -3.234375 C 3.53125 -2.859375 3.65625 -2.5625 3.90625 -2.34375 C 4.15625 -2.132812 4.503906 -2.03125 4.953125 -2.03125 Z M 4.953125 -2.03125 "/></g></g></g><g fill="#000000" fill-opacity="1"><g transform="translate(52.513669, 55.085644)"><g><path d="M 13.375 0 L 10.046875 0 L 10.046875 -5.078125 L 4.625 -5.078125 L 4.625 0 L 1.3125 0 L 1.3125 -13.078125 L 4.625 -13.078125 L 4.625 -7.6875 L 10.046875 -7.6875 L 10.046875 -13.078125 L 13.375 -13.078125 Z M 13.375 0 "/></g></g></g><g fill="#000000" fill-opacity="1"><g transform="translate(67.183667, 55.085644)"><g><path d="M 1.6875 -14.171875 C 2.007812 -14.492188 2.414062 -14.65625 2.90625 -14.65625 C 3.40625 -14.65625 3.8125 -14.492188 4.125 -14.171875 C 4.445312 -13.859375 4.609375 -13.453125 4.609375 -12.953125 C 4.609375 -12.460938 4.445312 -12.050781 4.125 -11.71875 C 3.8125 -11.394531 3.40625 -11.234375 2.90625 -11.234375 C 2.414062 -11.234375 2.007812 -11.394531 1.6875 -11.71875 C 1.375 -12.050781 1.21875 -12.460938 1.21875 -12.953125 C 1.21875 -13.453125 1.375 -13.859375 1.6875 -14.171875 Z M 4.5 0 L 1.28125 0 L 1.28125 -10.0625 L 4.5 -10.0625 Z M 4.5 0 "/></g></g></g><g fill="#000000" fill-opacity="1"><g transform="translate(72.98821, 55.085644)"><g><path d="M 7.875 -10.21875 C 8.988281 -10.21875 9.878906 -9.863281 10.546875 -9.15625 C 11.222656 -8.457031 11.5625 -7.519531 11.5625 -6.34375 L 11.5625 0 L 8.34375 0 L 8.34375 -5.453125 C 8.34375 -6.035156 8.179688 -6.5 7.859375 -6.84375 C 7.546875 -7.1875 7.117188 -7.359375 6.578125 -7.359375 C 6.003906 -7.359375 5.53125 -7.171875 5.15625 -6.796875 C 4.789062 -6.421875 4.578125 -5.929688 4.515625 -5.328125 L 4.515625 0 L 1.28125 0 L 1.28125 -10.0625 L 4.515625 -10.0625 L 4.515625 -8.421875 C 5.222656 -9.585938 6.34375 -10.1875 7.875 -10.21875 Z M 7.875 -10.21875 "/></g></g></g><g fill="#000000" fill-opacity="1"><g transform="translate(85.549161, 55.085644)"><g><path d="M 5.953125 -10.171875 C 7.597656 -10.171875 8.925781 -9.703125 9.9375 -8.765625 C 10.945312 -7.828125 11.453125 -6.582031 11.453125 -5.03125 C 11.453125 -3.488281 10.945312 -2.242188 9.9375 -1.296875 C 8.925781 -0.359375 7.597656 0.109375 5.953125 0.109375 C 4.296875 0.109375 2.960938 -0.359375 1.953125 -1.296875 C 0.953125 -2.242188 0.453125 -3.488281 0.453125 -5.03125 C 0.453125 -6.582031 0.953125 -7.828125 1.953125 -8.765625 C 2.960938 -9.703125 4.296875 -10.171875 5.953125 -10.171875 Z M 5.953125 -7.625 C 5.285156 -7.625 4.742188 -7.378906 4.328125 -6.890625 C 3.910156 -6.398438 3.703125 -5.769531 3.703125 -5 C 3.703125 -4.21875 3.910156 -3.585938 4.328125 -3.109375 C 4.742188 -2.628906 5.285156 -2.390625 5.953125 -2.390625 C 6.617188 -2.390625 7.160156 -2.628906 7.578125 -3.109375 C 7.992188 -3.585938 8.203125 -4.21875 8.203125 -5 C 8.203125 -5.769531 7.992188 -6.398438 7.578125 -6.890625 C 7.160156 -7.378906 6.617188 -7.625 5.953125 -7.625 Z M 5.953125 -7.625 "/></g></g></g><g fill="#000000" fill-opacity="1"><g transform="translate(97.438206, 55.085644)"><g><path d="M 4.890625 -10.21875 C 6.367188 -10.21875 7.75 -9.835938 9.03125 -9.078125 L 7.9375 -6.984375 C 6.6875 -7.648438 5.628906 -7.984375 4.765625 -7.984375 C 4.097656 -7.984375 3.765625 -7.753906 3.765625 -7.296875 C 3.765625 -7.046875 3.945312 -6.835938 4.3125 -6.671875 C 4.675781 -6.503906 5.117188 -6.351562 5.640625 -6.21875 C 6.160156 -6.082031 6.675781 -5.910156 7.1875 -5.703125 C 7.707031 -5.492188 8.148438 -5.164062 8.515625 -4.71875 C 8.878906 -4.269531 9.0625 -3.722656 9.0625 -3.078125 C 9.0625 -2.066406 8.664062 -1.28125 7.875 -0.71875 C 7.09375 -0.15625 6.070312 0.125 4.8125 0.125 C 3.03125 0.125 1.523438 -0.34375 0.296875 -1.28125 L 1.328125 -3.34375 C 2.503906 -2.507812 3.691406 -2.09375 4.890625 -2.09375 C 5.628906 -2.09375 6 -2.320312 6 -2.78125 C 6 -3.039062 5.816406 -3.257812 5.453125 -3.4375 C 5.097656 -3.613281 4.664062 -3.769531 4.15625 -3.90625 C 3.644531 -4.039062 3.132812 -4.207031 2.625 -4.40625 C 2.125 -4.613281 1.691406 -4.9375 1.328125 -5.375 C 0.972656 -5.8125 0.796875 -6.359375 0.796875 -7.015625 C 0.796875 -8.023438 1.175781 -8.8125 1.9375 -9.375 C 2.695312 -9.9375 3.679688 -10.21875 4.890625 -10.21875 Z M 4.890625 -10.21875 "/></g></g></g><g fill="#000000" fill-opacity="1"><g transform="translate(107.012898, 55.085644)"><g><path d="M 5.8125 -10.21875 C 7.1875 -10.21875 8.253906 -9.894531 9.015625 -9.25 C 9.785156 -8.613281 10.175781 -7.722656 10.1875 -6.578125 L 10.1875 0 L 7.046875 0 L 7.046875 -1.15625 C 6.378906 -0.28125 5.347656 0.15625 3.953125 0.15625 C 2.898438 0.15625 2.0625 -0.132812 1.4375 -0.71875 C 0.8125 -1.3125 0.5 -2.070312 0.5 -3 C 0.5 -3.957031 0.832031 -4.703125 1.5 -5.234375 C 2.164062 -5.765625 3.125 -6.035156 4.375 -6.046875 L 7.015625 -6.046875 L 7.015625 -6.203125 C 7.015625 -6.703125 6.847656 -7.085938 6.515625 -7.359375 C 6.191406 -7.640625 5.707031 -7.78125 5.0625 -7.78125 C 4.15625 -7.78125 3.148438 -7.503906 2.046875 -6.953125 L 1.140625 -9.078125 C 2.765625 -9.835938 4.320312 -10.21875 5.8125 -10.21875 Z M 4.953125 -2.03125 C 5.460938 -2.03125 5.910156 -2.15625 6.296875 -2.40625 C 6.679688 -2.664062 6.921875 -3.003906 7.015625 -3.421875 L 7.015625 -4.3125 L 4.984375 -4.3125 C 4.015625 -4.3125 3.53125 -3.953125 3.53125 -3.234375 C 3.53125 -2.859375 3.65625 -2.5625 3.90625 -2.34375 C 4.15625 -2.132812 4.503906 -2.03125 4.953125 -2.03125 Z M 4.953125 -2.03125 "/></g></g></g></svg>
